<svg xmlns="http://www.w3.org/2000/svg" viewBox="0 0 733.3 409.29" width="1222.167" height="682.149" fill="#fff"><path d="M445.8 398.6l.9.2-3.1 9.7H416v-1h1.3c1.5 0 2.6-.5 3.2-1.5.4-.6.5-1.9.5-3.9v-23c0-2.2-.2-3.6-.7-4.2-.7-.8-1.7-1.2-3-1.2H416v-1h16.2v1c-1.9 0-3.2.2-4 .5-.8.4-1.3.8-1.6 1.4s-.4 1.9-.4 4v22.5c0 1.5.1 2.5.4 3 .2.4.5.6 1 .8.4.2 1.8.3 4.1.3h2.6c2.7 0 4.7-.2 5.8-.6s2.1-1.1 3-2.1c.9-1.1 1.8-2.7 2.7-4.9m-32.4 0l.9.2-3.1 9.7h-27.6v-1h1.3c1.5 0 2.6-.5 3.2-1.5.4-.6.5-1.9.5-3.9v-23c0-2.2-.2-3.6-.7-4.2-.7-.8-1.7-1.2-3-1.2h-1.3v-1h16.1v1c-1.9 0-3.2.2-4 .5-.8.4-1.3.8-1.6 1.4s-.4 1.9-.4 4v22.5c0 1.5.1 2.5.4 3 .2.4.5.6 1 .8.4.2 1.8.3 4.1.3h2.6c2.7 0 4.7-.2 5.8-.6s2.1-1.1 3-2.1c.9-1.1 1.9-2.7 2.8-4.9zm-31.8 8.9v1h-15.3v-1h1.3c1.5 0 2.5-.4 3.2-1.3.4-.6.6-1.9.6-4.1v-23c0-1.8-.1-3-.3-3.6-.2-.4-.5-.8-1.1-1.1-.8-.4-1.6-.6-2.4-.6h-1.3v-1h15.3v1h-1.3c-1.5 0-2.5.4-3.2 1.3-.4.6-.7 1.9-.7 4.1v22.9c0 1.8.1 3 .3 3.6.2.4.5.8 1.1 1.1.8.4 1.6.6 2.4.6h1.4zm-41-17.4h1.5c3.4 0 6-.7 7.7-2.2s2.6-3.4 2.6-5.6-.7-4-2.1-5.4-3.2-2.1-5.5-2.1c-1 0-2.4.2-4.1.5v14.8zm25.3 18.3h-9.5l-12.1-16.7h-3.7v10.4c0 2.2.3 3.6.7 4.2.7.8 1.7 1.2 3 1.2h1.4v1h-15.3v-1h1.3c1.5 0 2.6-.5 3.2-1.5.4-.5.6-1.8.6-3.9v-23c0-2.2-.3-3.6-.7-4.2-.7-.8-1.7-1.2-3.1-1.2h-1.3v-1h13c3.8 0 6.6.3 8.4.8s3.3 1.6 4.6 3c1.2 1.5 1.9 3.3 1.9 5.3 0 2.2-.7 4.1-2.1 5.7s-3.6 2.7-6.6 3.4l7.4 10.2c1.7 2.4 3.1 3.9 4.3 4.7s2.8 1.3 4.7 1.5v1.1zm-41.8-36.5l.9 11.3h-.9c-.9-2.8-2.1-4.9-3.6-6.3-2.1-2-4.9-3.1-8.2-3.1-4.5 0-8 1.8-10.4 5.4-2 3-3 6.6-3 10.8 0 3.4.7 6.5 2 9.3s3 4.9 5.2 6.2c2.1 1.3 4.3 2 6.6 2 1.3 0 2.6-.2 3.8-.5a11.95 11.95 0 0 0 3.5-1.5v-10.3c0-1.8-.1-3-.4-3.5s-.7-1-1.3-1.3-1.6-.4-3-.4v-1h13.8v1h-.7c-1.4 0-2.3.5-2.8 1.4-.4.6-.5 1.9-.5 3.8v10.9c-2 1.1-4 1.9-6 2.4s-4.2.8-6.6.8c-6.9 0-12.1-2.2-15.7-6.6-2.7-3.3-4-7.1-4-11.5 0-3.1.8-6.1 2.3-9 1.8-3.4 4.2-6.1 7.4-7.9 2.6-1.5 5.7-2.3 9.3-2.3 1.3 0 2.5.1 3.5.3 1.1.2 2.6.7 4.5 1.4 1 .4 1.6.5 2 .5.3 0 .6-.2.9-.5.2-.3.4-.9.4-1.8zM0 388.3h278v4.5H0zm455.3 0h278v4.5h-278zM144.6 281.7c.1-5.7 1.3-11.3 3.7-16.9s5.5-11 9.3-16.3c3.9-5.3 7.9-10.4 12.3-15.2.9-.8 1.6-1.2 2.1-1.4.4-.2 1.3-.2 2.5-.2 2.1 3.3 4.1 6.6 6.1 10 2 3.3 3.5 6.8 4.8 10.3s1.9 7 2 10.6c-.1 2.1-1.2 5-3.3 8.6-2.2 3.5-5.1 7.1-8.7 10.7s-7.5 6.7-11.7 9.2c-4.2 2.6-8.3 3.9-12.4 3.9-2.2-.1-3.8-1.1-4.7-3s-1.5-3.9-1.7-6c-.3-2-.3-3.5-.3-4.3m-21.1 20.1c.5 2.3 1.9 4.5 3.9 6.9 2.1 2.3 4.5 4.4 7.5 6.2 3 1.7 6.3 2.8 9.7 3.4 2.8.2 5.8-.2 9.1-.9s6.3-1.6 9.3-2.7c3-1.2 5.4-2.4 7.4-3.6 1.1-.7 3-2.1 5.6-3.9l8.6-6.4 8.6-6.5 5.6-4.2c2.5 2.8 4.8 5.7 6.8 8.7 2 2.9 4.1 5.6 6.3 8.1s5.1 4.5 8.3 6.1c3.3 1.5 7.5 2.2 12.5 2.3 1.8 0 3.9-.3 6.6-.8 2.6-.4 5.1-1.3 7.5-2.4 2.3-1.1 3.9-2.6 4.9-4.5.9-1.8.6-4.1-.9-6.8-5.8-3.2-11-6.5-15.3-10.1-4.4-3.6-8.1-7-11.5-10.5-3.5-3.8-6.4-8.7-8.7-14.9a206.71 206.71 0 0 1-6.2-20.1c-1.9-7-3.9-13.8-6.3-20.2-2.2-6.3-5.2-11.6-8.7-15.7-3.6-4-8.2-6.1-13.9-6.3-4.2 0-7.2.7-9 2s-2.8 2.9-3.1 5-.2 4.2.3 6.5l1.5 6.6c-10.2 7.5-19 15.4-26.5 23.5s-13 16.8-16.6 25.9c-3.7 9-4.8 18.8-3.3 29.3zm87.8-153.2c.1-3 1-5.4 2.8-7.2 1.8-1.7 4.1-3.2 6.8-4.4s30.9-2.4 33.6-3.6c2.7-1.3 4.9-2.9 6.6-4.9.9-1.4 1.6-3.6 2.2-6.7 3.6-21.8 1.2-23.4 12.3-44 2.5-4.3 5.4-7.4 10.2-8.8 8.9-1.8 8.5 4.9 8.1 11.9-.3 22.5-2.7 24.5-2.9 47.1.1 4.2 1.2 7.1 3.4 8.8 2.1 1.6 4.8 2.5 7.9 2.4 3.2 0 6.3-.5 9.3-1.5a400.85 400.85 0 0 0 14.8-4.4c4-1.3 7.8-2.6 11.3-4 9.3-3.6 18.3-7.9 27.4-12.2 3.2-1.4 6.8-2.9 9.8-4.7 1-.4 1.7-.3 2.9-.9 2.2 0 3 .2 5 .4 2.3 3.1 3.4 3.6 2.7 8-.2.3-.3.6-.5 1-.9 1.1-1.6 2.4-1.8 3.7-38.7 29.4-61.7 32.2-86.9 38.7-15.3 11.2-12.1 81.3-10.2 94.9.8 4.9 1.9 9.8 3.4 14.5 2.9 9.1 8.2 17.2 17.7 20.2 1.6.5 3.5.5 5.1.5 2.9-.2 5.4.3 7.5 1.1 7.5 3.4 2.6 18.2-8.7 20.5-3.4.8-6.8 1.1-10.1 1-8.1-.1-15-2.1-20.4-6.1-5.4-3.9-9.7-9.1-13-15.5s-5.7-13.5-7.4-21.1c-1.7-7.5-2.9-49.1-3.7-56.6s.3-38.2-.2-44.2c-.5-2.2-1.7-4.3-3.7-6.2-5.6-5.1-28.8 6.2-38.6-8.3-1.7-2.4-2.6-5.6-2.7-9.4zm148.1 133.1c.1-5.7 1.3-11.3 3.7-16.9s5.5-11 9.3-16.3c3.9-5.3 7.9-10.4 12.3-15.2.9-.8 1.6-1.2 2.1-1.4.4-.2 1.3-.2 2.5-.2 2.1 3.3 4.1 6.6 6.1 10 2 3.3 3.5 6.8 4.8 10.3s1.9 7 2 10.6c-.1 2.1-1.2 5-3.3 8.6-2.2 3.5-5.1 7.1-8.7 10.7s-7.5 6.7-11.7 9.2c-4.2 2.6-8.3 3.9-12.4 3.9-2.2-.1-3.8-1.1-4.7-3s-1.5-3.9-1.7-6c-.3-2-.3-3.5-.3-4.3zm-21.1 20.1c.5 2.3 1.9 4.5 3.9 6.9 2.1 2.3 4.5 4.4 7.5 6.2 3 1.7 6.3 2.8 9.7 3.4 2.8.2 5.8-.2 9.1-.9s6.3-1.6 9.3-2.7c3-1.2 5.4-2.4 7.4-3.6 1.1-.7 3-2.1 5.6-3.9l8.6-6.4 8.6-6.5 5.6-4.2c2.5 2.8 4.8 5.7 6.8 8.7 2 2.9 4.1 5.6 6.3 8.1s5.1 4.5 8.3 6.1c3.3 1.5 7.5 2.2 12.5 2.3 1.8 0 3.9-.3 6.6-.8 2.6-.4 5.1-1.3 7.5-2.4 2.3-1.1 3.9-2.6 4.9-4.5.9-1.8.6-4.1-.9-6.8-5.8-3.2-11-6.5-15.3-10.1-4.4-3.6-8.1-7-11.5-10.5-3.5-3.8-6.4-8.7-8.7-14.9a206.71 206.71 0 0 1-6.2-20.1c-1.9-7-3.9-13.8-6.3-20.2-2.2-6.3-5.2-11.6-8.7-15.7-3.6-4-8.2-6.1-13.9-6.3-4.2 0-7.2.7-9 2s-2.8 2.9-3.1 5-.2 4.2.3 6.5l1.5 6.6c-10.2 7.5-19 15.4-26.5 23.5s-13 16.8-16.6 25.9c-3.6 9-4.8 18.8-3.3 29.3zm149.2-100.9c0-4.2.2-10.1.4-17.8l1.1-26.2 1.5-30.6 1.6-31.5 1.5-28.6 1-21.9c.2-6.1-.1-12-.8-17.7s-1.8-10.7-3.4-15.1c-18-45.1-13.8 56.7-14.3 62.9l-1.5 16.7c-.4 4.1-.8 9.1-1.2 15-2.6 36-3.8 73.5-5.1 109.5-.7 24.2-2 54.8 2.5 78.6 1.2 6.4 3.4 11.7 6.5 15.6 6.8 8.9 26.1 7 26.1-1.5 0-6.9-11.6-16.9-15.4-22.7-1-1.5-1.8-3.6-2.3-6.3s-.8-6.3-.8-11.2c-.3-5.2-.2-10.5.3-16 .8-10.7-1.1-12.8 7.1-17.8 6.7-3.8 37.4-22.7 37.4-2.1-.2 4-5.6 8.2-8.7 10.3-9.3 6.8-36.2 13.8-36.6 14.8-1.4 3.3-1.5 6.2-.3 8.9 6.2 4.6 28.4 1.8 65.1 41 3.4 2.9 7 5.5 10.9 7.9 1.7.9 3.9 1 6.4.3 2.6-.8 5.1-2.1 7.6-3.9 2.6-1.8 4.7-3.8 6.4-5.9s2.6-4.1 2.7-5.8c-.1-2.9-1.5-5.3-4-7.3-2.6-2-5.7-3.7-9.3-5.1-9.8-4.3-33.9-15.6-39.4-24.5-.9-1.6-1.2-3.2-.6-4.8.5-1.6 2.1-3.1 4.9-4.5 8.8-3.7 28.2-11.9 28.8-22.1 0-15.8-12.6-32.1-29.3-32.4-3.3 0-7 .3-10.9.9-9.3 1.4-31.6 15.5-34.1 12.2-1.2-1.8-1.8-5.5-1.8-11.3zM15.1 269.7c.9-5.1 2.1-10.6 3.6-16.2 28.3-110 31-102.6-3.4-213C7.8 9 45.4 2.9 50.5 53.1c4.2 40.9 6 141.6-4 180.7 2.7-2.3 6-4.8 9.6-7.5 3.7-2.7 7.7-5 12-6.9 4.3-2 8.7-3 13.4-3.1 40.6.7 29.2 53.5 7.4 78.5-5.6 5-11.8 8.8-18.9 11.5-6.9 2.7-14.5 3.7-22.6 2.9-.5 0-.9-.1-1.3-.2-25.8-1-35.3-17.8-31-39.3zM46 252.4c-1.6.1-2.8 1.5-3.8 4-.9 2.6-1.8 5.7-2.6 9.5-.7 3.9-1.6 7.6-2.8 11.5-.3.9-.5 1.7-.8 2.5-4.1 10.8 11.3 11.9 18.8 7.5 4.2-2.5 8.5-5.1 12.7-8.1 23.2-16.6 23.4-48.6-21.5-26.9zM611.5 19.6c-16.5 3.3-29.9 16.5-37.2 31.1-10.7 21.4-11.3 44.3-6.6 67.8 5.5 27.5 24.7 59.3 40.8 81.6 4.1 5.7 17.4 19.6 23.4 24 6.3 4.6 12.9 7.8 19.2 9.4l9.1 31.1c-23 7.2-23.9 54 6.5 54 14.2 0 26.5-6.2 26.5-20.4 0-.1 4.9 3.1 11.4 1.5 25-6.2 16-52.3-15.4-42.6-1.8.6-5.8-19-9.4-31.2 2.3-2.6 6.7-7.3 8.6-11.1 17.7-35.4 17.7-109.5-2.5-149.9-13.2-26.5-42.9-51.5-74.4-45.3z"></path></svg>