<?xml version="1.0" encoding="UTF-8"?>
<svg width="204px" height="84px" viewBox="0 0 204 84" version="1.1" xmlns="http://www.w3.org/2000/svg" xmlns:xlink="http://www.w3.org/1999/xlink">
    <!-- Generator: Sketch 54 (76480) - https://sketchapp.com -->
    <title>logo_bijeli_bg</title>
    <desc>Created with Sketch.</desc>
    <defs>
        <polygon id="path-1" points="0 0.480696995 203.41 0.480696995 203.41 81.0236767 0 81.0236767"></polygon>
    </defs>
    <g id="Symbols" stroke="none" stroke-width="1" fill="none" fill-rule="evenodd">
        <g id="header-prizvodi-naranca-1200" transform="translate(-130.000000, -22.000000)">
            <g id="logo_bijeli_bg" transform="translate(130.000000, 24.000000)">
                <g id="Logoo">
                    <path d="M191.208297,3.03073561 C191.208297,2.61786594 191.089303,2.53295867 190.775306,2.53295867 L190.655689,2.53295867 C190.595257,2.53295867 190.577813,2.55629197 190.577813,2.61786594 L190.577813,3.46110525 C190.577813,3.52462366 190.595257,3.54471622 190.655689,3.54471622 L190.775306,3.54471622 C191.089303,3.54471622 191.208297,3.4397164 191.208297,3.03073561 L191.208297,3.03073561 Z M189.804036,6.05758233 C189.723668,6.05758233 189.663236,6.01934166 189.663236,5.91563813 L189.663236,1.83166356 C189.663236,1.72925633 189.723668,1.68777492 189.804036,1.68777492 L190.872496,1.68777492 C191.685522,1.68777492 192.123497,2.07860759 192.123497,3.00675417 C192.123497,3.56221619 191.943448,3.89406748 191.64378,4.12091895 L192.216948,5.91304554 C192.260559,6.01934166 192.201373,6.05758233 192.123497,6.05758233 L191.427596,6.05758233 C191.34972,6.05758233 191.289911,6.01934166 191.269352,5.91563813 L190.813933,4.36656668 L190.635129,4.36656668 C190.595257,4.36656668 190.577813,4.38795553 190.577813,4.45082579 L190.577813,5.91563813 C190.577813,6.01934166 190.516135,6.05758233 190.435767,6.05758233 L189.804036,6.05758233 Z M193.210024,5.27526884 C193.307214,4.96739899 193.369514,4.55388118 193.369514,3.89406748 C193.369514,3.25499449 193.307214,2.84342111 193.210024,2.53295867 C192.853663,1.44083089 192.000141,0.82185046 190.813933,0.82185046 C189.626478,0.82185046 188.772334,1.44083089 188.415973,2.53295867 C188.31816,2.84342111 188.26022,3.25499449 188.26022,3.89406748 C188.26022,4.55388118 188.31816,4.96739899 188.415973,5.27526884 C188.772334,6.34989665 189.626478,6.98572891 190.813933,6.98572891 C192.000141,6.98572891 192.853663,6.34989665 193.210024,5.27526884 L193.210024,5.27526884 Z M187.62226,5.52221287 C187.487067,5.11063949 187.406699,4.63749215 187.406699,3.89406748 C187.406699,3.17397611 187.487067,2.69888432 187.62226,2.28666279 C188.080794,0.82185046 189.248935,0 190.813933,0 C192.395752,0 193.545826,0.82185046 194.001868,2.28666279 C194.140799,2.69888432 194.239234,3.17397611 194.239234,3.89406748 C194.239234,4.63749215 194.140799,5.11063949 194.001868,5.52221287 C193.545826,6.98572891 192.395752,7.80952381 190.813933,7.80952381 C189.248935,7.80952381 188.080794,6.98572891 187.62226,5.52221287 L187.62226,5.52221287 Z" id="Fill-1" fill="#FEFEFE"></path>
                    <path d="M191.208297,3.03073561 C191.208297,2.61786594 191.089303,2.53295867 190.775306,2.53295867 L190.655689,2.53295867 C190.595257,2.53295867 190.577813,2.55629197 190.577813,2.61786594 L190.577813,3.46110525 C190.577813,3.52462366 190.595257,3.54471622 190.655689,3.54471622 L190.775306,3.54471622 C191.089303,3.54471622 191.208297,3.4397164 191.208297,3.03073561 L191.208297,3.03073561 Z M189.804036,6.05758233 C189.723668,6.05758233 189.663236,6.01934166 189.663236,5.91563813 L189.663236,1.83166356 C189.663236,1.72925633 189.723668,1.68777492 189.804036,1.68777492 L190.872496,1.68777492 C191.685522,1.68777492 192.123497,2.07860759 192.123497,3.00675417 C192.123497,3.56221619 191.943448,3.89406748 191.64378,4.12091895 L192.216948,5.91304554 C192.260559,6.01934166 192.201373,6.05758233 192.123497,6.05758233 L191.427596,6.05758233 C191.34972,6.05758233 191.289911,6.01934166 191.269352,5.91563813 L190.813933,4.36656668 L190.635129,4.36656668 C190.595257,4.36656668 190.577813,4.38795553 190.577813,4.45082579 L190.577813,5.91563813 C190.577813,6.01934166 190.516135,6.05758233 190.435767,6.05758233 L189.804036,6.05758233 Z M193.210024,5.27526884 C193.307214,4.96739899 193.369514,4.55388118 193.369514,3.89406748 C193.369514,3.25499449 193.307214,2.84342111 193.210024,2.53295867 C192.853663,1.44083089 192.000141,0.82185046 190.813933,0.82185046 C189.626478,0.82185046 188.772334,1.44083089 188.415973,2.53295867 C188.31816,2.84342111 188.26022,3.25499449 188.26022,3.89406748 C188.26022,4.55388118 188.31816,4.96739899 188.415973,5.27526884 C188.772334,6.34989665 189.626478,6.98572891 190.813933,6.98572891 C192.000141,6.98572891 192.853663,6.34989665 193.210024,5.27526884 L193.210024,5.27526884 Z M187.62226,5.52221287 C187.487067,5.11063949 187.406699,4.63749215 187.406699,3.89406748 C187.406699,3.17397611 187.487067,2.69888432 187.62226,2.28666279 C188.080794,0.82185046 189.248935,0 190.813933,0 C192.395752,0 193.545826,0.82185046 194.001868,2.28666279 C194.140799,2.69888432 194.239234,3.17397611 194.239234,3.89406748 C194.239234,4.63749215 194.140799,5.11063949 194.001868,5.52221287 C193.545826,6.98572891 192.395752,7.80952381 190.813933,7.80952381 C189.248935,7.80952381 188.080794,6.98572891 187.62226,5.52221287 L187.62226,5.52221287 Z" id="Stroke-3" stroke="#FEFEFE" stroke-width="3" stroke-linejoin="round"></path>
                    <g id="Group-7" transform="translate(0.000000, 0.976190)">
                        <mask id="mask-2" fill="white">
                            <use xlink:href="#path-1"></use>
                        </mask>
                        <g id="Clip-6"></g>
                        <path d="M198.962,28.2041224 L196.411333,28.4943471 C191.876,20.2319109 187.384,11.7695717 183.044,3.31254555 L181.588,0.480696995 L178.399333,0.490658938 C175.406,0.498628493 173.956667,0.502613271 171.031333,0.553087119 L166.093333,0.633446799 L165.921333,5.55132639 C165.907333,5.97105628 165.892,6.39410683 165.877333,6.81582912 C165.239333,6.68765211 164.609333,6.63784239 164.012667,6.63784239 C163.836,6.63784239 163.652,6.63917065 163.436,6.6537815 C157.01,7.00112127 150.359333,7.43612615 143.635333,7.94418528 C143.536,7.44475984 143.430667,6.91146378 143.316,6.33300691 L142.419333,1.80098661 L137.802,2.16825027 C132.676667,2.57403345 130.079333,2.80116577 124.812,3.34309551 L119.196667,3.92155238 L120.234,9.45043119 C120.282,9.70346456 120.326667,9.94587186 120.373333,10.1803096 C120.067333,10.2141802 119.739333,10.2546921 119.382667,10.2985247 C116.174,10.6837198 112.302,12.5220305 112.038667,19.1148449 C112.018,19.7105692 111.996,20.3056293 111.974,20.9013535 C111.701333,20.2166359 111.429333,19.5418802 111.162667,18.8697811 C110.534667,17.3084125 108.631333,12.5578935 103.101333,12.5578935 C102.612,12.5578935 102.115333,12.5984054 101.592667,12.6761086 C100.87,12.7810411 100.272,12.8706986 99.7006667,12.9576995 C99.374,12.114255 98.9673333,11.3803918 98.4753333,10.72556 C96.718,8.39180863 93.9666667,7.31923934 90.904,7.81468002 C84.922,8.78762986 78.8353333,9.88211542 72.8126667,11.0662585 L67.9593333,12.0186203 L68.6746667,16.8986445 C68.9026667,18.4341121 69.0806667,19.6468127 69.254,20.806383 C67.5353333,20.1734675 65.6773333,19.8194864 63.6786667,19.8194864 C62.3713333,19.8194864 61.0313333,19.9722362 59.6906667,20.2810565 C56.35,20.9996447 54.2046667,21.4758256 51.702,22.051626 C49.852,17.9645725 46.2766667,17.5793773 45.0246667,17.5793773 C44.3193333,17.5793773 43.5866667,17.675012 42.85,17.864953 C36.9706667,19.3619011 30.9953333,20.9883545 25.0873333,22.6991523 L20.9206667,23.9078681 L21.37,28.2107637 C21.4473333,28.9512682 21.5153333,29.6074283 21.58,30.221084 C21.366,30.2117862 21.15,30.2071373 20.93,30.2071373 C19.2953333,30.2071373 17.6173333,30.4648196 16.0813333,30.9529548 C10.8006667,32.6239048 6.298,36.6983399 3.404,42.4224728 C0.882666667,47.4087577 -0.302,53.3274806 0.0653333333,59.0961101 C0.886666667,71.5976855 9.21733333,81.0236767 19.438,81.0236767 C20.4246667,81.0236767 21.432,80.9366757 22.4246667,80.7646662 C27.722,79.8475032 32.4,76.6251464 35.626,71.7610614 C36.15,71.7610614 36.694,71.7119158 37.252,71.6129605 C41.374,70.883082 45.8866667,70.0927678 51.0586667,69.1981853 C51.356,69.145719 51.758,69.0593822 52.2206667,68.9112813 C54.0866667,73.5435852 58.0713333,73.9659716 59.434,73.9659716 C59.9246667,73.9659716 60.4346667,73.9261238 60.9473333,73.8431076 C63.5206667,73.4280266 64.81,73.2174975 67.3793333,72.8010883 C72.7246667,71.9921785 76.6593333,69.3330036 79.3773333,65.6304811 C79.56,65.947271 79.7553333,66.2494499 79.972,66.5336974 C81.4473333,68.4769406 83.6226667,69.5441968 86.0966667,69.5441968 C86.59,69.5441968 87.0986667,69.5050132 87.6026667,69.4213328 L91.8713333,68.7319663 C95.0866667,68.2146094 98.3,67.6959242 101.522667,67.1798955 C104.283333,66.7322721 106.412667,65.1987969 107.519333,62.8577401 C108.165333,61.4969386 108.426667,59.9674482 108.321333,58.1357788 C108.890667,59.4281749 109.460667,60.714594 110.023333,61.9937075 L111.642,65.6643518 L115.614667,65.0201461 C118.722667,64.5193923 120.274667,64.2703438 123.38,63.779552 L127.454,63.1326898 L127.747333,59.0323537 C127.914,56.6986023 128.082,54.3535608 128.247333,52.0098475 L129.075333,56.4183397 L134.048,55.6638884 C137.743333,55.09805 140.142667,54.7374277 143.075333,54.2951174 L150.006,53.2511057 L150.066,53.3547099 L152.836667,52.9270104 C152.914,53.29361 152.990667,53.6608736 153.07,54.0307938 L154.083333,58.8855811 L159,58.0799919 C161.926667,57.6044751 163.403333,57.3667167 166.372,56.9011619 L171.814667,56.0577173 L170.653333,50.6942068 C170.618,50.54677 170.588,50.3986691 170.554667,50.2465834 L171.019333,50.1808346 C171.956667,50.0460163 172.654667,49.947061 173.356667,49.8461133 C174.028667,49.7498145 174.705333,49.6568363 175.588,49.5279952 C178.204,49.1587391 182.6,47.5449043 182.704,40.9228681 C182.705333,40.7442173 182.712,40.5715436 182.714667,40.4041829 L182.904667,40.3835949 C183.118,40.7960194 183.35,41.2383297 183.615333,41.7517019 L183.640667,41.8028399 C184.333333,43.1570001 186.424,47.1922514 191.562,47.1922514 C192.04,47.1922514 192.526,47.1597091 193.054667,47.0886472 L194.996,46.8196747 C195.809333,46.7054445 196.567333,46.600512 197.639333,46.4550676 L203.41,45.668074 L198.962,28.2041224" id="Fill-5" fill="#FEFEFE" mask="url(#mask-2)"></path>
                    </g>
                    <path d="M17.3113443,36.6243864 C21.6668071,35.2257879 27.9269117,36.5375629 28.493714,42.9988456 C28.7165763,45.1176078 28.8223528,46.176989 29.0445499,48.2829633 C26.6003816,48.8745745 25.3763016,49.1794663 22.94943,49.777808 C22.8556283,48.9230341 22.8210347,48.4788209 22.7385424,47.6247201 C22.5170105,45.3518293 19.9916803,45.1021277 18.2806294,45.5921083 C13.5652605,46.9328244 11.6120547,52.8408598 12.061771,58.0569994 C12.4689106,62.9393062 15.7260277,68.6891747 20.4739944,67.8976675 C25.2738514,67.0933725 27.9269117,61.2761989 27.9269117,61.2761989 C29.6253227,63.8512893 30.4815134,65.1516224 32.2105263,67.7805568 C29.9333384,72.5195038 25.9610659,76.0954199 21.181832,76.9326945 C12.0830593,78.5338811 5.56882511,69.5621209 4.93483152,59.8015458 C4.32545258,50.1338516 8.8552137,39.3482209 17.3113443,36.6243864" id="Fill-8" fill="#FD6D23"></path>
                    <path d="M29.8035529,36.0516898 C28.7752181,36.3273024 28.259037,36.4597828 27.2246611,36.7294038 C26.8776317,33.3754517 26.7057951,31.6991414 26.354067,28.3545096 C32.236115,26.6568959 38.1456838,25.0524845 44.068006,23.5532586 C46.0951411,23.0366515 47.1174348,24.1084782 47.4913137,27.0842951 C47.8953982,30.295115 48.0920706,31.9135068 48.4907853,35.1269896 C45.9259895,35.7055097 44.6439272,35.9997628 42.0771177,36.6029149 C41.9744185,35.7008496 41.9227332,35.2548099 41.8139929,34.3534104 C41.7206909,33.5412187 41.3400997,33.157092 40.7896855,33.2975612 C39.2391285,33.6710362 38.4678774,33.8607695 36.9179917,34.245562 C37.2603224,37.2207132 37.4267892,38.6966385 37.7677775,41.6724554 C41.0481117,40.9081964 42.6866007,40.5373843 45.9716336,39.8104062 C46.3998827,43.2995016 46.6079661,45.0390564 47.0389001,48.5135057 C43.7122505,49.1918855 42.0542956,49.5380655 38.7471119,50.2324228 C39.0437986,52.8247787 39.1914707,54.1096393 39.4827875,56.6906778 C39.5794456,57.494215 39.9600368,57.8883277 40.5272319,57.7738219 C42.151625,57.4602627 42.9584516,57.3004873 44.5815022,56.9949168 C45.1567521,56.885737 45.4306167,56.3551495 45.337986,55.5556067 C45.2312594,54.6502128 45.1748755,54.2021759 45.0688201,53.3007763 C47.6779175,52.7808405 48.9834731,52.5271971 51.605324,52.0225731 C52.0067236,55.2460419 52.2101084,56.8557791 52.6162066,60.076585 C52.9894143,63.0603907 52.2389715,64.4977036 50.1319592,64.865187 C45.4883431,65.6633983 40.8547955,66.4695984 36.2178917,67.2864502 C34.1122219,67.6572623 33.0617363,66.5841041 32.7556523,63.7161356 C31.7756466,54.4957632 30.7916134,45.2733936 29.8035529,36.0516898" id="Fill-10" fill="#FD6D23"></path>
                    <path d="M64.0407434,59.4829212 C64.3931435,59.4256266 64.5720439,59.3916495 64.9224187,59.3343548 C70.9591268,58.3277009 71.7692419,50.6921875 71.0300118,45.4936961 C70.3387136,40.5710184 67.4236493,33.4584854 61.5509896,34.6923194 C60.8556407,34.8382209 60.5079663,34.9021777 59.802491,35.0447482 C60.8556407,42.813505 61.9067651,50.5762658 62.9524888,58.3416915 C63.0686053,59.1717979 63.4628613,59.5868511 64.0407434,59.4829212 M52.5458846,36.5663879 C51.4954353,36.7849071 50.9641348,36.8994964 49.9211116,37.1320061 C49.4728478,33.6203762 49.2466907,31.866893 48.8038278,28.3512657 C53.519373,27.2580036 55.8808586,26.728361 60.611256,25.7210409 C71.2379414,23.2746919 77.2584471,34.5024475 78.6876253,44.1326147 C80.1937643,54.2870946 77.3637621,66.5847948 66.4305831,68.1997048 C63.8118859,68.6240851 62.5055752,68.8332772 59.8895784,69.2509953 C57.7488491,69.5934309 56.6639699,68.4468714 56.2791653,65.4515596 C55.0302377,55.8280546 53.7921118,46.1898929 52.5458846,36.5663879" id="Fill-12" fill="#FD6D23"></path>
                    <path d="M78.109892,25.4996763 C77.0721243,25.6952062 76.5489137,25.7939722 75.507152,25.9921715 C74.9819444,22.3792054 74.7103541,20.5700529 74.1818182,16.9530828 C80.1341714,15.7752318 86.0951781,14.6974815 92.0741578,13.7211664 C94.1090878,13.3874976 95.2014398,14.572022 95.7006866,17.6597934 C96.2465297,20.9978164 96.5127947,22.6661606 97.0606348,26.0055183 C94.481193,26.4186003 93.191805,26.633483 90.6210168,27.0679198 C90.4719084,26.1203003 90.3960229,25.6458233 90.2469145,24.7008731 C90.113782,23.8573583 89.7230382,23.4309295 89.1558938,23.5223548 C87.6075631,23.7886225 86.8247441,23.9227574 85.2684254,24.2030392 C85.9520607,28.6241513 86.2982052,30.8357083 86.9711899,35.2588224 C90.2722097,34.6915854 91.9183928,34.4166422 95.2234066,33.8720947 C95.7985389,37.5044136 96.0934274,39.3162354 96.6798759,42.9452177 C93.3535609,43.4897652 91.6900706,43.762039 88.3690809,44.3226026 C88.9788276,48.2899251 89.2870293,50.2805933 89.8967761,54.2372384 C90.0239176,55.0860919 90.4259777,55.5125207 91.011095,55.414422 C92.6293202,55.151491 93.4434254,55.0180234 95.0663103,54.748419 C95.6407769,54.6583284 95.8977226,54.1204543 95.7625932,53.2769395 C95.6121535,52.333324 95.5415932,51.8508389 95.3911535,50.9152315 C98.0105351,50.483464 99.323887,50.2672466 101.9446,49.8461565 C102.483786,53.1895182 102.763365,54.8565277 103.310539,58.1918814 C103.808455,61.2796528 103.109509,62.7538017 101.010676,63.0941439 C96.3769996,63.8448988 91.7453206,64.594319 87.1149729,65.3464086 C85.0068201,65.6920895 83.8938326,64.5162405 83.4431791,61.4364771 C81.6658605,49.46177 79.8832166,37.4770528 78.109892,25.4996763" id="Fill-14" fill="#FD6D23"></path>
                    <path d="M101.40474,29.3010552 C100.990525,28.3186621 100.743857,28.0545282 100.098266,28.1491927 C99.6960187,28.2087718 99.4952274,28.2405473 99.09165,28.3027744 C98.49393,24.7088311 98.2053755,22.9075566 97.6076555,19.3129513 C99.6142395,18.9998301 100.614207,18.8462485 102.612813,18.5529869 C104.620726,18.2564154 105.578807,19.0402115 106.581434,21.5378994 C109.149835,27.9770754 111.75015,34.4116173 114.365092,40.8309335 C115.442849,43.428582 116.672863,47.5203416 116.672863,47.5203416 L116.751983,47.5024679 C116.751983,47.5024679 116.505315,43.2644085 116.648262,40.4880228 C116.931498,33.6874004 117.200106,26.8728762 117.453423,20.0537181 C117.558472,17.430252 118.197414,16.4425631 120.209982,16.2009368 C122.22388,15.9606344 123.233156,15.8454482 125.245723,15.6190476 C125.904612,19.1474539 126.234388,20.9056991 126.889952,24.4354293 C126.486375,24.4850786 126.280929,24.5095722 125.882006,24.5585594 C125.233091,24.6386602 125.082165,24.9590633 125.027645,25.9871337 C124.316232,37.0893665 123.558943,48.1823315 122.763091,59.2852264 C119.660798,59.7764229 118.110316,60.0220212 115.004034,60.5238095 C110.416416,50.1424837 105.890632,39.7307063 101.40474,29.3010552" id="Fill-16" fill="#FD6D23"></path>
                    <path d="M131.304874,41.9947519 C132.5624,41.8257338 133.183015,41.7339622 134.443936,41.561643 C132.874065,33.5095158 131.3008,25.4534273 129.728213,17.4006399 C128.488341,17.5307046 127.873837,17.5980477 126.632607,17.7307533 C125.956314,14.2256088 125.611377,12.4680848 124.937799,8.96756178 C130.175001,8.44136095 132.7953,8.2168838 138.046083,7.80952381 C138.742068,11.2486457 139.099227,12.975139 139.799286,16.4155814 C138.556698,16.5264995 137.938799,16.5806381 136.698248,16.696838 C138.304786,24.6723789 139.91336,32.6366959 141.515144,40.6135572 C142.774028,40.4418982 143.397359,40.3573892 144.650132,40.1943131 C145.354265,43.6288134 145.704634,45.3513454 146.411483,48.7851854 C141.048664,49.5767975 138.357748,49.9663314 132.996966,50.7619048 C132.32203,47.2600613 131.983884,45.4959351 131.304874,41.9947519" id="Fill-18" fill="#FD6D23"></path>
                    <path d="M151.269547,21.974566 C150.326624,22.0546283 149.849843,22.0936669 148.90958,22.186301 C148.337043,22.2359264 148.105635,22.7215934 148.269217,23.5136144 C148.452748,24.3923145 148.543183,24.8343112 148.730704,25.7143345 C146.204495,25.9717248 144.943053,26.1033975 142.416844,26.3799763 C141.759857,23.1298448 141.434023,21.5014708 140.781026,18.2447226 C140.19253,15.3280737 140.717189,14.2283753 142.781911,14.0563407 C149.676287,13.5263416 156.568668,13.0730965 163.477673,12.6979286 C165.54173,12.5960312 166.495957,13.5263416 167.119696,16.2742642 C167.810596,19.3159691 168.158374,20.8464158 168.861244,23.8947373 C166.331045,24.0965472 165.070268,24.195798 162.53608,24.419443 C162.347894,23.5612548 162.253469,23.1417549 162.061293,22.2875368 C161.891062,21.5199976 161.474128,21.1110845 160.906246,21.1514464 C159.964653,21.2275387 159.489202,21.2738557 158.546279,21.3386995 C160.798521,31.7302538 163.071378,42.119823 165.322291,52.5100539 C162.363853,52.9719007 160.888292,53.2094409 157.929855,53.6904762 C155.708865,43.1083605 153.486546,32.5408016 151.269547,21.974566" id="Fill-20" fill="#FD6D23"></path>
                    <path d="M182.883451,28.0192543 C181.730178,25.5558976 181.150228,24.3167955 180.00292,21.8277929 C178.894718,19.4791679 177.404742,15.6208089 177.404742,15.6208089 L177.327195,15.6248583 C177.327195,15.6248583 177.638048,19.5372086 177.638048,21.9884172 C177.657269,24.5712298 177.662572,25.8656732 177.681793,28.4795308 C179.762324,28.2919108 180.796955,28.2021501 182.883451,28.0192543 M168.861244,37.5372596 C169.160167,37.4987907 169.312611,37.4825933 169.605569,37.4461491 C170.239869,37.3671867 170.381046,37.0702342 170.414186,36.1017638 C170.789993,26.0404702 171.15122,15.9805265 171.493888,5.91788316 C174.390988,5.8706407 175.843847,5.86389178 178.74625,5.85714286 C183.428273,15.1807792 188.24153,24.4301774 193.182708,33.5742923 C193.634738,34.4192574 193.890579,34.647371 194.52289,34.5819065 C194.82579,34.5501865 194.97956,34.540738 195.277157,34.5063185 C196.029436,37.5372596 196.405906,39.0517178 197.167464,42.0846835 C195.343437,42.3391179 194.426784,42.4734215 192.601432,42.7292056 C190.614356,43.0032119 189.633411,42.3391179 188.543104,40.1639402 C187.597951,38.3120359 187.124048,37.3800097 186.179558,35.4977352 C182.887428,35.8723004 181.237055,36.0605954 177.954867,36.4493333 C177.909796,38.492907 177.891901,39.5207679 177.844842,41.5825637 C177.811702,43.9932788 177.204576,44.9239552 175.209547,45.2128091 C173.392148,45.482766 172.479472,45.6116704 170.655445,45.8809524 C169.93962,42.5456349 169.575743,40.8773013 168.861244,37.5372596" id="Fill-22" fill="#FD6D23"></path>
                    <path d="M191.208297,3.03073561 C191.208297,2.61786594 191.089303,2.53295867 190.775306,2.53295867 L190.655689,2.53295867 C190.595257,2.53295867 190.577813,2.55629197 190.577813,2.61786594 L190.577813,3.46110525 C190.577813,3.52462366 190.595257,3.54471622 190.655689,3.54471622 L190.775306,3.54471622 C191.089303,3.54471622 191.208297,3.4397164 191.208297,3.03073561 L191.208297,3.03073561 Z M189.804036,6.05758233 C189.723668,6.05758233 189.663236,6.01934166 189.663236,5.91563813 L189.663236,1.83166356 C189.663236,1.72925633 189.723668,1.68777492 189.804036,1.68777492 L190.872496,1.68777492 C191.685522,1.68777492 192.123497,2.07860759 192.123497,3.00675417 C192.123497,3.56221619 191.943448,3.89406748 191.64378,4.12091895 L192.216948,5.91304554 C192.260559,6.01934166 192.201373,6.05758233 192.123497,6.05758233 L191.427596,6.05758233 C191.34972,6.05758233 191.289911,6.01934166 191.269352,5.91563813 L190.813933,4.36656668 L190.635129,4.36656668 C190.595257,4.36656668 190.577813,4.38795553 190.577813,4.45082579 L190.577813,5.91563813 C190.577813,6.01934166 190.516135,6.05758233 190.435767,6.05758233 L189.804036,6.05758233 Z M193.210024,5.27526884 C193.307214,4.96739899 193.369514,4.55388118 193.369514,3.89406748 C193.369514,3.25499449 193.307214,2.84342111 193.210024,2.53295867 C192.853663,1.44083089 192.000141,0.82185046 190.813933,0.82185046 C189.626478,0.82185046 188.772334,1.44083089 188.415973,2.53295867 C188.31816,2.84342111 188.26022,3.25499449 188.26022,3.89406748 C188.26022,4.55388118 188.31816,4.96739899 188.415973,5.27526884 C188.772334,6.34989665 189.626478,6.98572891 190.813933,6.98572891 C192.000141,6.98572891 192.853663,6.34989665 193.210024,5.27526884 L193.210024,5.27526884 Z M187.62226,5.52221287 C187.487067,5.11063949 187.406699,4.63749215 187.406699,3.89406748 C187.406699,3.17397611 187.487067,2.69888432 187.62226,2.28666279 C188.080794,0.82185046 189.248935,0 190.813933,0 C192.395752,0 193.545826,0.82185046 194.001868,2.28666279 C194.140799,2.69888432 194.239234,3.17397611 194.239234,3.89406748 C194.239234,4.63749215 194.140799,5.11063949 194.001868,5.52221287 C193.545826,6.98572891 192.395752,7.80952381 190.813933,7.80952381 C189.248935,7.80952381 188.080794,6.98572891 187.62226,5.52221287 L187.62226,5.52221287 Z" id="Fill-24" fill="#FD6D23"></path>
                </g>
            </g>
        </g>
    </g>
</svg>