<?xml version="1.0" encoding="utf-8"?><svg xmlns="http://www.w3.org/2000/svg" xmlns:xlink="http://www.w3.org/1999/xlink" id="Layer_1" viewBox="0 0 489.6 240"><style>.st0{clip-path:url(#SVGID_2_)}.st2,.st3{clip-path:url(#SVGID_7_)}.st3{fill:#fff}</style><defs><path id="SVGID_1_" d="M7.4 133.4l474.8-7.7V240l-474.8-.4z"/></defs><clipPath id="SVGID_2_"><use overflow="visible" xlink:href="#SVGID_1_"/></clipPath><path d="M244.9 163c-79.2 0-158.4 13.9-234 41.9l-4.4-.4-.1-2.7C3.3 175.6 248.1 150 248.1 150s237 25.3 233.9 51.5l1 3.1-4.4.4c-75.6-28-154.9-41.9-234-41.9h.3m-.2-7.5c78.5 0 157 13.6 232.2 40.8 2.8-24.8 5.3-50.8 5.3-75.9v-.1c0-23.4-.4-46.9-5.4-69.6-75-27.5-153.5-41.2-232-41.2S87.9 23.3 12.8 50.8c-5 22.7-5.4 46.2-5.4 69.6v.1c0 25.2 2.5 51.2 5.4 75.9 75.1-27.2 153.6-40.8 232.2-40.8h-.3" class="st0"/><path d="M478.7 202.9l-3.3-1.2-2.4-.9c-3.3-1.2-6.7-2.4-10-3.5-.8-.3-1.6-.6-2.5-.9-3.3-1.1-6.6-2.2-10-3.3-.8-.3-1.7-.5-2.5-.8-3.3-1-6.6-2.1-9.9-3.1-.9-.3-1.7-.5-2.6-.8-3.3-1-6.6-1.9-9.9-2.8-.9-.2-1.8-.5-2.7-.7-.6-.2-1.3-.3-1.9-.5-5.9-1.6-11.8-3.1-17.7-4.6v57.9l7.5-3.1 1.9-.8 10.5-4.4 2-.8 10.4-4.4 2.1-.9 10.4-4.3 2.2-.9 10.3-4.3 2.2-.9 10.2-4.3 2.3-1 7.7-3.2-4.3-1.5zM84.7 189.3v-9c-10 2.4-19.9 5.1-29.8 8l-3.9 1.2c-.9.3-1.7.5-2.6.8-3.3 1-6.6 2.1-9.9 3.1-.8.3-1.7.5-2.5.8-3.3 1.1-6.7 2.2-10 3.3l-2.4.9c-3.3 1.2-6.7 2.3-10 3.6l-2.4.9h-.1l-4.4 1.6 4.6 2 2.3 1 10.2 4.4 2.2 1 10.3 4.4 2.2.9 10.4 4.5 2.1.9 10.4 4.5 2 .9 10.5 4.5 1.9.8 9.1 3.9-.2-48.9z" class="st0"/><g><defs><path id="SVGID_3_" d="M12.8 48.7c-5 22.7-5.4 46.2-5.4 69.6v.1c0 25.2 2.5 51.2 5.4 75.9 75.1-27.2 153.6-40.7 232-40.8h-.1.1c78.5 0 157 13.6 232.1 40.8 2.8-24.8 5.3-50.8 5.3-75.9v-.1c0-23.4-.4-46.9-5.4-69.6-75-27.5-153.5-41.2-232-41.2-78.5-.1-156.9 13.7-232 41.2"/></defs><clipPath id="SVGID_4_"><use overflow="visible" xlink:href="#SVGID_3_"/></clipPath><linearGradient id="SVGID_5_" x1="-131.305" x2="-130.305" y1="454.655" y2="454.655" gradientTransform="matrix(474.824 0 0 -474.824 62354.086 215982.047)" gradientUnits="userSpaceOnUse"><stop offset="0" stop-color="#7a0c0e"/><stop offset=".2" stop-color="#ed1c24"/><stop offset=".8" stop-color="#ed1c24"/><stop offset=".995" stop-color="#7a0c0e"/><stop offset="1" stop-color="#7a0c0e"/></linearGradient><path fill="url(#SVGID_5_)" d="M7.4 7.4h474.8v186.9H7.4z" clip-path="url(#SVGID_4_)"/></g><g><defs><path id="SVGID_6_" d="M14.7 7.7l467.5 6.9v206l-465.4 7z"/></defs><clipPath id="SVGID_7_"><use overflow="visible" xlink:href="#SVGID_6_"/></clipPath><path d="M112.8 131.5c0 6.6-2.5 12.4-7.7 17.5s-12 8.9-20.4 11.6c-8.3 2.8-15.1 3.4-20.4 1.9-5.2-1.6-7.9-5.6-7.9-12.4l-.9-73.4c-.1-7.3 1.9-13.4 5.8-18.4 4.5-5.7 11.9-10.5 22.1-13.8 9.4-3.1 16.5-3.2 21.2-.8 4.7 2.5 7.1 7.3 7.2 14.3.4 24.6.7 49 1 73.5m-24.2 8.4l-.9-77.6c0-1.2-.4-2-1-2.3-.7-.3-1.7-.3-3.1.2-1.4.5-2.5 1.1-3.2 1.9-.7.8-1.1 1.8-1.1 3l.9 77.7c0 1.1.4 1.8 1.1 2.2.7.4 1.8.3 3.2-.2 1.4-.4 2.5-1.1 3.1-1.9.7-.9 1-1.9 1-3M172.5 135.6c-17.6 2.7-35 6.3-52.3 10.7 0-4-.1-8-.2-12 8-22.7 15.9-45.2 23.9-67.5-7.8 1.6-15.5 3.4-23.3 5.4-.1-4.7-.1-9.4-.2-14 16.1-4.1 32.3-7.4 48.6-10 0 3.9.1 7.9.1 11.9-8.1 22-16.3 44.3-24.4 66.7 9.2-1.9 18.3-3.6 27.5-5 .2 4.5.2 9.1.3 13.8M231.5 129.5c-7.4.3-14.8.9-22.2 1.5v-2.9c-1.2 1.2-2.9 2.4-5.3 3.4-2.4 1.1-5.2 1.8-8.3 2.1-4.7.5-8.5-.2-11.6-2.1-3-2-4.6-4.6-4.6-8.1l-.9-76.9c7.3-1.1 14.7-2 22-2.7.3 23.8.5 47.6.8 71.4 0 2.7 1.3 3.9 3.9 3.7 1.3-.1 2.2-.6 2.9-1.3.6-.7.9-1.7.9-2.9-.3-23.9-.5-47.7-.8-71.6 7.4-.6 14.8-1.2 22.2-1.5.3 29.3.6 58.6 1 87.9" class="st2"/><path d="M264.9 130.4c.1 4.1-.3 7.1-1 9-1.1 2.9-3.4 5.1-6.6 6.6-1.1.6-2.6.9-4.5 1.2-1.9.2-4 .3-6.2.4-5.4.1-10.8.3-16.1.6-.1-4.2-.1-8.5-.1-12.7 2.4-.1 4.9-.2 7.3-.3 2.1-.1 3.5-.6 4.1-1.6.6-1 .9-2.5.9-4.6-.3-29.2-.7-58.5-1-87.7 7.4-.2 14.8-.3 22.2-.2.3 29.6.7 59.5 1 89.3m-1-94.3c-7.4-.1-14.8 0-22.2.2-.1-5.2-.1-10.5-.2-15.8 7.4-.2 14.8-.3 22.2-.2 0 5.3.1 10.6.2 15.8M326.6 115.4c.1 6.6-2.5 11.1-7.7 13.7-4.4 2.2-10.6 3-18.5 2.4-7.7-.5-13.6-2-17.9-4.5-5.2-3.1-7.9-7.9-8-14.5-.1-6.3-.1-12.5-.2-18.8 7.4.2 14.8.5 22.2 1 .1 6.2.1 12.4.2 18.5 0 1.5.3 2.6 1 3.4.6.8 1.6 1.3 2.7 1.3 1.2.1 2-.2 2.6-1 .6-.7.9-1.8.9-3.2 0-2.3-.1-4.5-.1-6.8 0-6-1.5-9.9-4.5-11.9-4.1-2.3-7.9-4.5-11.4-6.5-5.3-3.1-8.8-5.7-10.7-8-1.8-2.3-2.8-5.5-2.8-9.6 0-3.9-.1-7.9-.1-11.8 0-6.6 2.4-11.4 7.3-14.3 4.3-2.5 10.5-3.5 18.3-3 7.7.5 13.6 2.3 17.7 5.1 5 3.4 7.6 8.5 7.7 15.1 0 5.8.1 11.6.2 17.3-7.2-.8-14.5-1.5-21.8-2.1 0-5.7-.1-11.4-.2-17.1 0-1.3-.4-2.4-1.1-3.3-.7-.8-1.5-1.3-2.5-1.4-1-.1-1.9.2-2.6.9-.7.7-1.1 1.7-1.1 3.2 0 2.7.1 5.5.1 8.2 0 3.6 1.7 6.5 4.8 8.7 2.9 1.7 5.8 3.4 8.6 5.2 6.3 3.8 10.2 6.5 11.7 8.1 3.1 3.3 4.7 7.4 4.7 12.5.4 4.4.5 8.8.5 13.2M397.2 145.6c-8.6-2.1-17.1-4-25.8-5.8-4.6-11.5-9.2-22.9-13.9-34.3.1 10.6.2 21.2.4 31.8-7.3-1.3-14.7-2.4-22.1-3.4l-1.2-108.5c7.4 1 14.7 2.1 22.1 3.4.2 16.2.4 32.5.5 48.7 4.7-10 9.3-19.9 13.9-29.8 8.1 1.6 16.1 3.4 24.1 5.4-6.6 12.6-13.2 25.4-19.9 38.2 7.4 18 14.6 36 21.9 54.3M449.4 144.6c.1 6.6-2.3 10.5-7.2 11.7-4 1-9.8.3-17.4-2-7.8-2.3-13.9-5.3-18.1-9-5.2-4.5-7.8-10-7.9-16.7l-.6-52.5c0-6.6 2.4-10.8 7.5-12.6 4.3-1.5 10.3-1.2 18 1.1 7 2.1 12.9 5.6 17.8 10.2 4.8 4.6 7.2 9.9 7.3 15.7.1 18.1.3 36.1.6 54.1m-21.5-7.3l-.6-53.6c0-1.4-.3-2.6-1-3.5-.6-.9-1.6-1.6-2.8-1.9-1-.3-1.9-.2-2.6.3-.7.5-1.1 1.5-1.1 2.9l.6 53.6c0 1.4.3 2.6 1 3.6.6 1 1.6 1.6 2.8 2 1.2.4 2.1.3 2.8-.3.6-.6.9-1.6.9-3.1M123 37.3c5.2-1.3 9.1-2.4 14.4-3.5 2.1 1.9 4.2 3.8 6.3 5.8 2-2.8 5.4-5.7 7.5-8.5 5.3-1 10.5-2 15.9-2.8-4.2 5.8-8.3 11.6-12.5 17.5-6.3 1.2-12.6 2.5-18.8 3.9-4.3-4.3-8.6-8.4-12.8-12.4" class="st2"/><path d="M107.5 127.5c.1 6.6-2.5 12.4-7.7 17.5s-12 8.9-20.4 11.6c-8.4 2.7-15.1 3.4-20.4 1.9-5.2-1.6-7.9-5.6-7.9-12.4l-.9-73.4c-.1-7.3 1.8-13.4 5.8-18.4 4.5-5.7 11.9-10.5 22.1-13.8 9.4-3.1 16.5-3.2 21.2-.7 4.7 2.5 7.1 7.3 7.2 14.3.4 24.5.7 48.9 1 73.4m-24.2 8.4l-.9-77.6c0-1.2-.3-1.9-1-2.3-.7-.3-1.7-.3-3.1.2-1.4.5-2.5 1.1-3.2 1.9-.7.8-1 1.7-1 2.9l.9 77.6c0 1.1.4 1.8 1.1 2.2.7.4 1.8.3 3.2-.2 1.4-.4 2.4-1.1 3.1-1.9.6-.7.9-1.7.9-2.8M167.2 131.6c-17.6 2.8-35 6.3-52.3 10.7 0-4-.1-8-.1-12 7.9-22.7 15.9-45.2 23.9-67.5-7.8 1.6-15.6 3.4-23.3 5.3-.1-4.7-.1-9.3-.2-14 16.1-4.1 32.3-7.4 48.6-10 .1 4 .1 7.9.1 11.9-8.2 22.1-16.3 44.3-24.4 66.8 9.2-1.9 18.3-3.5 27.6-5 0 4.5 0 9.1.1 13.8M226.1 125.5c-7.4.4-14.8.9-22.1 1.5v-2.9c-1.2 1.2-2.9 2.4-5.3 3.4-2.4 1.1-5.2 1.8-8.3 2.1-4.7.5-8.5-.2-11.5-2.1-3-2-4.6-4.6-4.6-8.1l-.9-76.9c7.3-1.1 14.7-1.9 22.1-2.7.3 23.8.6 47.6.8 71.4 0 2.7 1.3 3.9 3.9 3.7 1.3-.1 2.2-.5 2.8-1.3.6-.7 1-1.7.9-2.9-.3-23.9-.6-47.7-.8-71.6 7.4-.7 14.8-1.2 22.1-1.5l.9 87.9" class="st3"/><path d="M259.6 126.4c0 4.1-.3 7.1-1 9-1.2 2.9-3.4 5.1-6.6 6.6-1.1.5-2.6.9-4.5 1.1-1.9.2-4 .4-6.2.4-5.4.1-10.7.3-16.1.6 0-4.2-.1-8.5-.1-12.7 2.4-.1 4.9-.3 7.3-.3 2.1-.1 3.5-.6 4.2-1.6.6-1 .9-2.5.9-4.6-.3-29.2-.7-58.4-1-87.7 7.4-.2 14.8-.3 22.2-.2.2 29.7.6 59.6.9 89.4m-1.1-94.3c-7.4-.1-14.8 0-22.2.2-.1-5.3-.1-10.5-.2-15.7 7.4-.2 14.8-.3 22.2-.2.1 5.2.2 10.5.2 15.7M321.3 111.4c.1 6.6-2.5 11.1-7.7 13.7-4.4 2.2-10.6 3-18.5 2.4-7.7-.6-13.6-2-17.9-4.5-5.3-3.1-7.9-7.9-8-14.5-.1-6.3-.1-12.5-.2-18.8 7.4.2 14.8.5 22.2 1 .1 6.2.1 12.3.2 18.5 0 1.5.4 2.6 1 3.4.7.8 1.6 1.3 2.7 1.4 1.2.1 2-.3 2.6-1 .6-.7.9-1.8.9-3.3 0-2.3-.1-4.5-.1-6.8-.1-6-1.5-9.9-4.5-11.9-4.1-2.4-7.9-4.5-11.4-6.6-5.3-3.1-8.8-5.7-10.7-7.9-1.8-2.3-2.8-5.5-2.8-9.6-.1-3.9-.1-7.8-.1-11.8-.1-6.6 2.4-11.4 7.3-14.3 4.3-2.5 10.4-3.5 18.3-3 7.7.6 13.6 2.3 17.7 5.1 5 3.4 7.6 8.5 7.6 15.1.1 5.7.1 11.5.2 17.3-7.3-.9-14.5-1.5-21.8-2.1-.1-5.7-.1-11.4-.2-17.1 0-1.4-.4-2.4-1.1-3.3-.7-.8-1.6-1.3-2.5-1.3-1.1-.1-1.9.2-2.7.9-.7.7-1.1 1.7-1 3.2 0 2.7 0 5.5.1 8.2.1 3.6 1.7 6.5 4.8 8.7 2.9 1.7 5.8 3.5 8.6 5.2 6.3 3.7 10.2 6.5 11.7 8.1 3.1 3.2 4.7 7.4 4.8 12.5.4 4.3.5 8.7.5 13.1M391.8 141.6c-8.5-2.1-17.1-4-25.7-5.7-4.6-11.5-9.3-22.9-13.9-34.3.1 10.6.3 21.2.4 31.8-7.3-1.3-14.7-2.4-22.1-3.4l-1.2-108.5c7.4 1 14.7 2.1 22.1 3.4l.6 48.7c4.6-10 9.3-19.9 13.9-29.8 8.1 1.6 16.1 3.4 24.1 5.4-6.6 12.6-13.2 25.4-19.9 38.2 7.2 17.9 14.5 36 21.7 54.2M444.1 140.6c0 6.6-2.3 10.5-7.3 11.7-4 1-9.7.3-17.5-2-7.7-2.3-13.8-5.3-18-9-5.2-4.5-7.8-10-7.9-16.7l-.6-52.5c0-6.6 2.4-10.8 7.5-12.6 4.3-1.5 10.4-1.2 18 1.1 7 2.1 12.9 5.6 17.8 10.2 4.8 4.6 7.2 9.9 7.3 15.7.2 18.1.4 36.1.7 54.1m-21.6-7.3l-.6-53.6c0-1.4-.3-2.6-1-3.6-.6-.9-1.5-1.5-2.8-1.9-1-.3-1.9-.2-2.6.3-.7.5-1 1.5-1 2.9.2 17.9.4 35.7.6 53.7 0 1.4.3 2.6.9 3.6.6 1 1.6 1.6 2.8 2 1.2.3 2.1.3 2.7-.3.8-.6 1.1-1.6 1-3.1M117.7 33.3c5.2-1.3 10.5-2.5 15.7-3.7 2.1 1.9 4.2 3.9 6.3 5.8 2-2.8 4.1-5.6 6.2-8.4 5.3-1 10.5-2 15.8-2.8-4.2 5.8-8.3 11.6-12.5 17.5-6.3 1.2-12.6 2.5-18.8 3.9-4.3-4.2-8.5-8.3-12.7-12.3M441.5 51.7c3.5 0 6.4 2.9 6.4 6.5s-2.9 6.5-6.4 6.5c-3.5 0-6.4-2.9-6.4-6.5s2.9-6.5 6.4-6.5m0 1.3c-2.7 0-4.9 2.3-4.9 5.2 0 2.9 2.2 5.2 4.9 5.2s4.9-2.3 4.9-5.2c0-2.9-2.2-5.2-4.9-5.2zm-1.1 8.9h-1.5v-7.2c.6-.1 1.2-.2 2.3-.2 1.2 0 2 .2 2.4.6.4.3.7.8.7 1.5 0 .9-.6 1.5-1.4 1.7v.1c.6.1 1 .7 1.1 1.8.1 1.1.3 1.6.4 1.8h-1.6c-.2-.3-.3-.9-.4-1.9-.1-.8-.6-1.1-1.4-1.1h-.7v2.9zm0-4.1h.8c.9 0 1.6-.3 1.6-1 0-.6-.5-1.1-1.5-1.1h-.8v2.1z" class="st3"/></g><g><defs><path id="SVGID_8_" d="M244.7 153.5h.2-.2zM7.4 118.4v-.1c0-23.4.4-46.9 5.4-69.6 75-27.5 153.5-41.2 232-41.2s157 13.7 232 41.2c5.1 22.7 5.4 46.2 5.4 69.6v.1c0 25.2-2.5 51.2-5.3 75.9-75.1-27.2-153.6-40.7-232.1-40.8-78.5 0-157 13.6-232 40.8-2.9-24.8-5.4-50.8-5.4-75.9m1-76l-1.9.7L6 45C.3 69.3 0 94 0 118.2v.1c0 27.3 2.9 55.2 5.9 81.5l.6 4.7 4.4-1.6c75.6-28 154.8-41.9 233.9-41.9s158.3 14 233.9 41.9l4.4 1.6.6-4.7c3-26.2 5.9-54.2 5.9-81.5v-.1c0-24.2-.4-48.9-6-73.2l-.5-1.9-1.8-.7C404.8 14.1 324.8 0 244.8 0S84.8 14.1 8.4 42.4"/></defs><clipPath id="SVGID_9_"><use overflow="visible" xlink:href="#SVGID_8_"/></clipPath><linearGradient id="SVGID_10_" x1="-131.302" x2="-130.302" y1="454.653" y2="454.653" gradientTransform="matrix(489.5947 0 0 -489.5947 64284.727 222697.766)" gradientUnits="userSpaceOnUse"><stop offset="0" stop-color="#826631"/><stop offset=".018" stop-color="#a07f3e"/><stop offset=".037" stop-color="#bb9547"/><stop offset=".055" stop-color="#cfa54d"/><stop offset=".072" stop-color="#dbae50"/><stop offset=".088" stop-color="#dfb251"/><stop offset=".159" stop-color="#cca14e"/><stop offset=".264" stop-color="#d2ac56"/><stop offset=".522" stop-color="#d8ab38"/><stop offset=".819" stop-color="#e1b45e"/><stop offset=".869" stop-color="#ddb15c"/><stop offset=".902" stop-color="#d6ab59"/><stop offset=".93" stop-color="#cba255"/><stop offset=".954" stop-color="#bc964e"/><stop offset=".977" stop-color="#a88544"/><stop offset=".999" stop-color="#907139"/><stop offset="1" stop-color="#8e7038"/></linearGradient><path fill="url(#SVGID_10_)" d="M0 0h489.6v204.5H0z" clip-path="url(#SVGID_9_)"/></g></svg>